<svg xmlns="http://www.w3.org/2000/svg" width="244" height="44" viewBox="0 0 244 44">
  <g id="Group_11" data-name="Group 11" transform="translate(0 -0.136)">
    <path id="Path_45" data-name="Path 45" d="M1.919-16.341A12.9,12.9,0,0,1,3.48-22.709,11.3,11.3,0,0,1,7.747-27.09a11.8,11.8,0,0,1,6.035-1.57,12.32,12.32,0,0,1,6.951,1.915,10.889,10.889,0,0,1,4.214,5.4H22.106a8.309,8.309,0,0,0-3.174-3.836,9.277,9.277,0,0,0-5.151-1.383,9.367,9.367,0,0,0-4.8,1.243A8.647,8.647,0,0,0,5.63-21.748a11.524,11.524,0,0,0-1.213,5.406,11.42,11.42,0,0,0,1.214,5.38A8.671,8.671,0,0,0,8.978-7.4a9.367,9.367,0,0,0,4.8,1.243,9.366,9.366,0,0,0,5.15-1.363A8.233,8.233,0,0,0,22.106-11.3H24.95a10.776,10.776,0,0,1-4.231,5.349,12.425,12.425,0,0,1-6.937,1.9A11.8,11.8,0,0,1,7.747-5.628,11.332,11.332,0,0,1,3.48-9.993a12.8,12.8,0,0,1-1.561-6.348ZM32.2-29.8V-4.265H29.772V-29.8Zm22.653,15.15q0,1.243-.07,1.9H39.067a7.556,7.556,0,0,0,1.04,3.658A6.114,6.114,0,0,0,42.571-6.8a7.236,7.236,0,0,0,3.33.776,6.712,6.712,0,0,0,3.972-1.139A5.348,5.348,0,0,0,52-10.238h2.567a7.977,7.977,0,0,1-2.966,4.5A9.1,9.1,0,0,1,45.9-3.991a9.589,9.589,0,0,1-4.789-1.19A8.427,8.427,0,0,1,37.8-8.563a10.53,10.53,0,0,1-1.2-5.125,10.758,10.758,0,0,1,1.179-5.142,8.175,8.175,0,0,1,3.295-3.381A9.771,9.771,0,0,1,45.9-23.385a9.289,9.289,0,0,1,4.735,1.174,8.129,8.129,0,0,1,3.122,3.158A8.97,8.97,0,0,1,54.849-14.651Zm-2.462-.069a6.668,6.668,0,0,0-.85-3.589,5.723,5.723,0,0,0-2.411-2.243,7.368,7.368,0,0,0-3.33-.759,6.634,6.634,0,0,0-4.613,1.725,6.876,6.876,0,0,0-2.116,4.866ZM66.018-6.611l6.382-16.5h2.57L67.37-4.265h-2.74l-7.6-18.844h2.6ZM95.4-14.651q0,1.243-.07,1.9H79.615a7.555,7.555,0,0,0,1.04,3.658A6.114,6.114,0,0,0,83.117-6.8a7.236,7.236,0,0,0,3.33.776,6.712,6.712,0,0,0,3.97-1.139,5.347,5.347,0,0,0,2.133-3.074h2.567a7.977,7.977,0,0,1-2.966,4.5,9.1,9.1,0,0,1-5.705,1.743,9.589,9.589,0,0,1-4.789-1.19,8.427,8.427,0,0,1-3.313-3.381,10.529,10.529,0,0,1-1.2-5.125,10.758,10.758,0,0,1,1.179-5.142,8.175,8.175,0,0,1,3.295-3.381,9.771,9.771,0,0,1,4.821-1.174,9.289,9.289,0,0,1,4.735,1.174A8.129,8.129,0,0,1,94.3-19.054,8.971,8.971,0,0,1,95.4-14.651Zm-2.462-.069a6.668,6.668,0,0,0-.85-3.589,5.723,5.723,0,0,0-2.411-2.243,7.368,7.368,0,0,0-3.33-.759,6.634,6.634,0,0,0-4.613,1.725,6.876,6.876,0,0,0-2.116,4.866Zm9.33-5.039a5.914,5.914,0,0,1,2.441-2.731,7.865,7.865,0,0,1,4.041-.966v2.519h-.659a6.143,6.143,0,0,0-4.232,1.415q-1.6,1.415-1.6,4.728V-4.265H99.84V-23.109h2.428ZM120.37-4.023a11.549,11.549,0,0,1-4.561-.863A7.487,7.487,0,0,1,112.6-7.37a6.521,6.521,0,0,1-1.214-3.831h5.2a3.34,3.34,0,0,0,1.058,2.347,3.76,3.76,0,0,0,2.619.863,4.043,4.043,0,0,0,2.667-.812,2.632,2.632,0,0,0,.971-2.123,2.445,2.445,0,0,0-.659-1.76,4.619,4.619,0,0,0-1.647-1.087,27.363,27.363,0,0,0-2.72-.878,29.259,29.259,0,0,1-3.832-1.363,6.707,6.707,0,0,1-2.532-2.037,5.782,5.782,0,0,1-1.058-3.641,6.486,6.486,0,0,1,1.075-3.727,6.833,6.833,0,0,1,3.018-2.433,11.027,11.027,0,0,1,4.44-.845,9.666,9.666,0,0,1,6.087,1.812,6.707,6.707,0,0,1,2.584,5.056H123.32a2.756,2.756,0,0,0-1.058-2.053,4,4,0,0,0-2.619-.811,3.383,3.383,0,0,0-2.272.725,2.613,2.613,0,0,0-.85,2.1,2.171,2.171,0,0,0,.64,1.6,4.9,4.9,0,0,0,1.6,1.035q.954.4,2.688.915a28.333,28.333,0,0,1,3.85,1.383,6.908,6.908,0,0,1,2.567,2.07,5.732,5.732,0,0,1,1.075,3.624,6.791,6.791,0,0,1-1,3.589A7.089,7.089,0,0,1,124.985-5a10.1,10.1,0,0,1-4.615.982Zm18.418-15.393v9.249a1.822,1.822,0,0,0,.468,1.4,2.309,2.309,0,0,0,1.578.431h2.258v4.073H140.04q-6.14,0-6.14-5.936v-9.215h-2.289v-3.969H133.9v-4.728h4.891v4.728h4.3v3.969Zm6.556,5.522a11.021,11.021,0,0,1,1.159-5.142,8.489,8.489,0,0,1,3.157-3.451,8.435,8.435,0,0,1,4.457-1.208,7.862,7.862,0,0,1,3.764.863,7.627,7.627,0,0,1,2.584,2.174v-2.727h4.891v19.12h-4.891v-2.8a7.213,7.213,0,0,1-2.584,2.229,7.938,7.938,0,0,1-3.8.88A8.2,8.2,0,0,1,149.661-5.2,8.71,8.71,0,0,1,146.5-8.7a11.2,11.2,0,0,1-1.162-5.193Zm15.123.069a6.172,6.172,0,0,0-.7-3.019,4.878,4.878,0,0,0-1.873-1.933,5.025,5.025,0,0,0-2.532-.673,4.937,4.937,0,0,0-2.5.656,4.949,4.949,0,0,0-1.854,1.915,5.975,5.975,0,0,0-.711,2.986,6.173,6.173,0,0,0,.711,3.019,5.1,5.1,0,0,0,1.871,1.987,4.776,4.776,0,0,0,2.48.692,5.025,5.025,0,0,0,2.532-.673,4.878,4.878,0,0,0,1.876-1.94,6.172,6.172,0,0,0,.691-3.016Zm18.452-5.591h-3.364v15.15h-4.925v-15.15h-2.185v-3.969h2.185v-.966q0-3.521,2.008-5.177t6.07-1.553v4.073a3.618,3.618,0,0,0-2.462.586,2.928,2.928,0,0,0-.7,2.243v.794h3.364Zm11.966,0H187.52v15.15h-4.925v-15.15H180.41v-3.969h2.185v-.966q0-3.521,2.008-5.177t6.07-1.553v4.073a3.618,3.618,0,0,0-2.462.586,2.928,2.928,0,0,0-.7,2.243v.794h3.364Z" transform="translate(53.115 39.222)" fill="#347dfe"/>
    <path id="Subtraction_4" data-name="Subtraction 4" d="M22.068,44a22,22,0,1,1,15.6-6.443A22.069,22.069,0,0,1,22.068,44ZM20.688,17.716h0L17.627,35.495l4.44,4.832,4.44-4.833L23.447,17.716Zm1.369-5.358-1.967,1.679.575,2.332h2.781l.575-2.332ZM32.527,7.176,23.3,11.589l5,4.269Zm-20.918,0,4.23,8.685,5-4.273Zm10.459-3.51a21.3,21.3,0,0,0-9.517,2.215l9.517,4.811,9.517-4.811A21.294,21.294,0,0,0,22.068,3.667Z" transform="translate(0.002 0.137)" fill="#347dfe"/>
  </g>
</svg>
