<svg xmlns="http://www.w3.org/2000/svg" width="21.841" height="16.381" viewBox="0 0 21.841 16.381"><g transform="translate(-930 -5108.64)"><g transform="translate(2153.275 7540.346)"><path d="M19.794,59.882H2.048A2.05,2.05,0,0,0,0,61.93V74.215a2.05,2.05,0,0,0,2.048,2.048H19.794a2.05,2.05,0,0,0,2.048-2.048V61.93A2.05,2.05,0,0,0,19.794,59.882Zm0,1.365a.678.678,0,0,1,.262.053l-9.135,7.917L1.786,61.3a.679.679,0,0,1,.262-.053Zm0,13.651H2.048a.683.683,0,0,1-.683-.683V62.742l9.108,7.894a.684.684,0,0,0,.895,0l9.108-7.894V74.215A.683.683,0,0,1,19.794,74.9Z" transform="translate(-1223.275 -2491.588)" fill="#ccc"/><path d="M-1219.349-2429.591l6.94,5.857,7.077-5.857Z" fill="#e6e6e6"/></g></g></svg>