<svg xmlns="http://www.w3.org/2000/svg" width="15.118" height="17" viewBox="0 0 15.118 17">
  <path id="ic_https_24px" d="M16.353,6.333h-.882V4.81c0-2.1-1.976-3.81-4.412-3.81S6.647,2.707,6.647,4.81V6.333H5.765A1.663,1.663,0,0,0,4,7.857v7.619A1.663,1.663,0,0,0,5.765,17H16.353a1.663,1.663,0,0,0,1.765-1.524V7.857A1.663,1.663,0,0,0,16.353,6.333ZM11.059,13.19a1.663,1.663,0,0,1-1.765-1.524,1.663,1.663,0,0,1,1.765-1.524,1.663,1.663,0,0,1,1.765,1.524A1.663,1.663,0,0,1,11.059,13.19Zm2.735-6.857H8.324V4.81a2.571,2.571,0,0,1,2.735-2.362A2.571,2.571,0,0,1,13.794,4.81Z" transform="translate(-3.5 -0.5)" fill="none" stroke="#242424" stroke-width="1"/>
</svg>
