<svg xmlns="http://www.w3.org/2000/svg" width="14.327" height="19.208" viewBox="0 0 14.327 19.208">
  <g id="Group_1953" data-name="Group 1953" transform="translate(-294.5 -168.5)">
    <path id="ic_system_update_24px" d="M16.423,1.008,6.9,1A1.8,1.8,0,0,0,5,2.655v14.9a1.8,1.8,0,0,0,1.9,1.655h9.519a1.8,1.8,0,0,0,1.9-1.655V2.655A1.792,1.792,0,0,0,16.423,1.008Z" transform="translate(290 168)" fill="none" stroke="#f6f6f6" stroke-width="1"/>
    <path id="ic_done_all_24px" d="M6.423,5.953,5.941,5.59,3.774,7.221l.482.363ZM7.873,5.59,4.256,8.311,2.827,7.239,2.345,7.6,4.256,9.039l4.1-3.087ZM.41,7.6,2.321,9.039,2.8,8.677.9,7.239Z" transform="translate(297.321 170.794)" fill="#f6f6f6"/>
    <g id="Path_898" data-name="Path 898" transform="translate(296.112 170.012)" fill="none" stroke-linecap="round" stroke-linejoin="round">
      <path d="M11.072,1V15.185c0,.552-11.072.552-11.072,0V1C0,.448,11.072.448,11.072,1Z" stroke="none"/>
      <path d="M 5.535823822021484 1.585779190063477 C 3.336415767669678 1.585779190063477 1.784271240234375 1.668688774108887 1.000003814697266 1.754938125610352 L 1.000003814697266 14.42973136901855 C 1.784274101257324 14.51598167419434 3.336415767669678 14.59888935089111 5.535823822021484 14.59888935089111 C 7.735231876373291 14.59888935089111 9.287373542785645 14.51598167419434 10.0716438293457 14.42973136901855 L 10.0716438293457 1.754938125610352 C 9.287376403808594 1.668688774108887 7.735231876373291 1.585779190063477 5.535823822021484 1.585779190063477 M 5.535823822021484 0.5857820510864258 C 8.303733825683594 0.5857820510864258 11.0716438293457 0.7238540649414062 11.0716438293457 0.9999990463256836 L 11.0716438293457 15.18467903137207 C 11.0716438293457 15.73695945739746 3.814697265625e-06 15.73695945739746 3.814697265625e-06 15.18467903137207 L 3.814697265625e-06 0.9999990463256836 C 3.814697265625e-06 0.7238540649414062 2.767913818359375 0.5857820510864258 5.535823822021484 0.5857820510864258 Z" stroke="none" fill="#f6f6f6"/>
    </g>
  </g>
</svg>
