<svg xmlns="http://www.w3.org/2000/svg" width="21.944" height="20.256" viewBox="0 0 21.944 20.256"><defs><style>.a{fill:#ccc;}.b{fill:#fff;}</style></defs><g transform="translate(4472.632 2671.028)"><g transform="translate(-4456.212 -2671.028)"><path class="a" d="M31.209,20.256h-2.2a3.407,3.407,0,0,0,3.167-2.705,4.092,4.092,0,0,0-1.342-4.258,3.971,3.971,0,0,0,1.482-3.165,3.971,3.971,0,0,0-1.482-3.165A4.092,4.092,0,0,0,32.173,2.7,3.406,3.406,0,0,0,29,0h2.209a3.4,3.4,0,0,1,3.174,2.7,4.092,4.092,0,0,1-1.341,4.261,3.971,3.971,0,0,1,1.482,3.165,3.971,3.971,0,0,1-1.482,3.165,4.093,4.093,0,0,1,1.34,4.265,3.4,3.4,0,0,1-3.178,2.7Z" transform="translate(-29.005)"/></g><g transform="translate(-4472.632 -2670.633)"><g transform="translate(0 0)"><g transform="translate(5.908)"><path class="a" d="M3,1.5A1.5,1.5,0,0,0,1.5,3v.752A1.5,1.5,0,0,0,3,5.252H9.66a1.5,1.5,0,0,0,1.5-1.5V3a1.5,1.5,0,0,0-1.5-1.5H3M3,0H9.66a3,3,0,0,1,3,3v.752a3,3,0,0,1-3,3H3a3,3,0,0,1-3-3V3A3,3,0,0,1,3,0Z"/><path class="a" d="M2.954,1.5a1.454,1.454,0,0,0,0,2.908H9.706a1.454,1.454,0,0,0,0-2.908H2.954m0-1.5H9.706a2.954,2.954,0,0,1,0,5.908H2.954A2.954,2.954,0,0,1,2.954,0Z" transform="translate(0 7.298)"/><path class="a" d="M2.954,1.5a1.454,1.454,0,0,0,0,2.908H9.706a1.454,1.454,0,0,0,0-2.908H2.954m0-1.5H9.706a2.954,2.954,0,0,1,0,5.908H2.954A2.954,2.954,0,0,1,2.954,0Z" transform="translate(0 13.554)"/></g><g transform="translate(0 6.802)"><circle class="b" cx="6.33" cy="6.33" r="6.33"/><path class="a" d="M6.33,1.5a4.83,4.83,0,1,0,4.83,4.83A4.835,4.835,0,0,0,6.33,1.5m0-1.5A6.33,6.33,0,1,1,0,6.33,6.33,6.33,0,0,1,6.33,0Z"/><path class="a" d="M3.854-.433A1.339,1.339,0,0,1,3.412.609,2.015,2.015,0,0,1,2.287,1.1v.542H1.734V1.1a1.665,1.665,0,0,1-.4-.055A4.165,4.165,0,0,1,.874.9.823.823,0,0,1,.361.523,2.916,2.916,0,0,1,.251.081l-.029-.4A.209.209,0,0,1,.281-.456.232.232,0,0,1,.464-.522.314.314,0,0,1,.69-.4a1.436,1.436,0,0,0,.442.693,1.148,1.148,0,0,0,.759.251A.884.884,0,0,0,2.4.381a.5.5,0,0,0,.228-.43.528.528,0,0,0-.221-.474,7.588,7.588,0,0,0-.8-.426,3.19,3.19,0,0,1-.919-.635,1.185,1.185,0,0,1-.348-.852,1.233,1.233,0,0,1,.4-.933,1.784,1.784,0,0,1,.994-.463v-.476h.552v.476a2.216,2.216,0,0,1,.663.11,1.168,1.168,0,0,1,.535.326v.03L3.5-3.4a1.829,1.829,0,0,1,.077.176q.033.088.07.176a.445.445,0,0,1,.036.172.924.924,0,0,1,.014.172.221.221,0,0,1-.1.172.331.331,0,0,1-.209.077.313.313,0,0,1-.11-.014l-.11-.066a1.855,1.855,0,0,0-.426-.515.918.918,0,0,0-.59-.2.726.726,0,0,0-.432.136.431.431,0,0,0-.19.37q0,.352.805.73A7.96,7.96,0,0,1,3.5-1.376a1.09,1.09,0,0,1,.358.943Z" transform="translate(4.252 8.016)"/></g></g></g></g></svg>